<svg width="30" height="30" viewBox="0 0 30 30" fill="none" xmlns="http://www.w3.org/2000/svg">
<g clip-path="url(#clip0_40_508)">
<path d="M15.0051 7.29761C10.7514 7.29761 7.30762 10.7451 7.30762 14.9951C7.30762 19.2489 10.7551 22.6926 15.0051 22.6926C19.2589 22.6926 22.7026 19.2451 22.7026 14.9951C22.7026 10.7414 19.2551 7.29761 15.0051 7.29761ZM15.0051 19.9914C12.2439 19.9914 10.0089 17.7551 10.0089 14.9951C10.0089 12.2351 12.2451 9.99886 15.0051 9.99886C17.7651 9.99886 20.0014 12.2351 20.0014 14.9951C20.0026 17.7551 17.7664 19.9914 15.0051 19.9914Z" fill="#2F3035"/>
<path d="M21.1853 0.095454C18.4253 -0.033296 11.589 -0.027046 8.82653 0.095454C6.39903 0.209204 4.25778 0.795454 2.53153 2.5217C-0.353466 5.4067 0.0152841 9.29421 0.0152841 14.9955C0.0152841 20.8305 -0.309716 24.628 2.53153 27.4692C5.42778 30.3642 9.37153 29.9855 15.0053 29.9855C20.7853 29.9855 22.7803 29.9892 24.824 29.198C27.6028 28.1192 29.7003 25.6355 29.9053 21.1742C30.0353 18.413 30.0278 11.578 29.9053 8.81546C29.6578 3.5492 26.8315 0.355454 21.1853 0.095454ZM25.554 25.5605C23.6628 27.4517 21.039 27.283 14.969 27.283C8.71903 27.283 6.21278 27.3755 4.38403 25.5417C2.27778 23.4455 2.65903 20.0792 2.65903 14.9755C2.65903 8.0692 1.95028 3.09545 8.88153 2.74045C10.474 2.6842 10.9428 2.66545 14.9515 2.66545L15.0078 2.70295C21.669 2.70295 26.8953 2.00545 27.209 8.93545C27.2803 10.5167 27.2965 10.9917 27.2965 14.9942C27.2953 21.1717 27.4128 23.693 25.554 25.5605Z" fill="#2F3035"/>
<path d="M23.0077 8.79257C24.0012 8.79257 24.8065 7.98724 24.8065 6.99382C24.8065 6.0004 24.0012 5.19507 23.0077 5.19507C22.0143 5.19507 21.209 6.0004 21.209 6.99382C21.209 7.98724 22.0143 8.79257 23.0077 8.79257Z" fill="#2F3035"/>
</g>
<defs>
<clipPath id="clip0_40_508">
<rect width="30" height="30" fill="white"/>
</clipPath>
</defs>
</svg>
